<?xml version="1.0" encoding="UTF-8" standalone="yes"?>
<!-- Created with sK1/UniConvertor (http://sk1project.org/) -->
<svg xmlns="http://www.w3.org/2000/svg" xmlns:xlink="http://www.w3.org/1999/xlink" width="500pt" height="481.08pt" viewBox="0 0 500 481.08" fill-rule="evenodd">
<g>
<path style="stroke:none; fill:#454545" d="M 354.662 214.532L 324.032 216.338L 324.099 207.514L 339.505 207.592L 354.662 214.532z"/>
<path style="stroke:none; fill:#2c2c2b" d="M 95.6425 210.682L 86.8086 207.079L 93.0977 201.314L 95.8636 205.338L 95.6425 210.682z"/>
<path style="stroke:none; fill:#737476" d="M 92.6967 201.684L 228.179 263.986L 228.458 275.908L 220.819 273.628L 220.652 265.3L 88.8195 205.177L 92.6967 201.684z"/>
<path style="stroke:none; fill:#2c2c2b" d="M 255.624 299.615L 458.056 342.936L 459.604 321.935L 459.619 319.984L 491.364 284.635L 496.309 280.546L 500 448.031L 493.01 453.916L 462.031 481.08L 451.735 400.841L 450.455 394.273L 220.684 329.083L 216.509 336.554L 177.391 327.111L 172.868 314.752L 176.509 307.282L 165.241 292.435L 168.165 274.23L 189.761 267.264L 202.186 270.124L 236.668 253.113L 308.464 274.243L 309.318 290.044L 280.794 304.441L 255.902 297.237L 255.624 299.615z"/>
<path style="stroke:none; fill:#2c2c2b" d="M 92.6968 201.916L 86.8316 207.095L 0 77.5219C 6.68582 66.6998 13.3352 55.8811 20.7252 45.5184C 23.2386 42.0744 25.8149 38.719 28.513 35.416C 30.684 32.843 32.8967 30.3502 35.1988 27.8941C 37.5607 25.4674 39.9641 23.14 42.468 20.8588C 44.4155 19.1581 46.3803 17.5144 48.3984 15.8991C 51.3693 13.623 54.3592 11.4986 57.4946 9.45465L 62.8137 6.45953L 68.0402 4.09906L 73.1411 2.32465L 78.0846 1.08459L 82.8364 0.327637L 87.3672 0L 91.6431 0.0478516C 96.4357 0.394348 101.321 1.14667 105.804 2.96204L 105.753 2.8844C 106.585 3.30371 107.457 3.6532 108.307 4.04065C 109.198 4.49365 110.08 4.94598 110.923 5.487L 345.858 123.736L 354.662 214.532L 339.505 207.592L 339.818 220.987L 325.294 216.651L 325.12 207.98L 324.099 207.514L 324.099 231.853L 324.099 231.853L 324.099 233.828L 323.552 234.709L 323.375 235.028C 321.357 238.375 319.222 241.631 317.015 244.858C 312.209 251.828 307.157 258.649 301.635 265.073L 299.316 267.719C 298.266 267.329 290.244 274.098 289.195 273.706C 283.622 271.626 258.392 261.961 237.781 255.216C 234.678 257.282 231.914 255.651 223.594 260.561C 224.727 261.259 225.935 261.992 227.221 262.76L 208.421 271.736C 178.321 261.227 148.176 250.841 118.076 240.343L 104.097 229.481C 102.834 228.29 101.807 227.028 100.757 225.653L 99.636 223.912L 98.6365 222.053L 97.7623 220.079L 97.017 217.994L 96.4023 215.797L 95.9216 213.493L 95.5755 211.081L 95.3669 208.563L 95.2976 205.698L 92.6968 201.916z"/>
<path style="stroke:none; fill:#b0b4b6" d="M 8.84801 79.0733C 24.2958 52.9662 40.3014 30.9407 58.0125 18.7932C 73.1565 8.40594 89.5491 5.06531 107.906 14.4849L 194.259 144.177L 198.532 140.616L 111.704 10.6166C 108.672 6.07654 84.1492 -4.7049 56.7358 14.0244C 33.6541 29.7944 20.8201 50.2824 4.05873 77.4467L 87.4959 201.955L 90.9129 198.938L 8.84801 79.0733z"/>
<path style="stroke:none; fill:#9e9fa0" d="M 115.716 11.7205L 342.642 125.938L 350.692 208.96L 201.221 140.53L 115.716 11.7205z"/>
<path style="stroke:none; fill:#87888a" d="M 200.59 155.257L 320.686 206.765L 320.686 230.223L 200.592 180.602L 200.59 155.257z"/>
<path style="stroke:none; fill:#737476" d="M 200.534 142.148L 336.017 204.451L 336.296 216.373L 328.657 214.093L 328.49 205.764L 196.657 145.642L 200.534 142.148z"/>
<path style="stroke:none; fill:#5c5d5e" d="M 163.996 226.499L 222.974 248.625C 216.714 250.34 212.213 252.545 209.295 255.305C 212.094 257.486 215.733 259.888 220.002 262.424L 208.219 268.05C 177.752 257.407 146.809 246.764 116.343 236.122C 130.738 240.002 146.423 237.232 163.996 226.499z"/>
<path style="stroke:none; fill:#c5c6c8" d="M 193.408 148.78L 193.408 171.081C 193.17 196.074 161.334 224.928 144.434 229.311C 121.131 238.813 98.7112 232.609 98.7112 205.934L 98.7112 121.802C 98.7112 102.898 100.487 100.981 116.078 83.4217C 122.253 76.4677 129.332 69.2339 137.993 63.8154L 156.315 92.1398C 152.583 92.5563 148.487 93.9282 144.196 96.3444L 144.196 96.3444C 126.976 106.041 112.888 128.997 112.888 147.357L 112.888 177.533C 112.888 195.894 126.976 202.982 144.196 193.285L 144.196 193.285C 161.415 183.588 175.503 160.632 175.503 142.272L 175.503 121.804L 193.408 148.78z"/>
<path style="stroke:none; fill:#9e9fa0" d="M 98.7112 121.802C 98.7112 102.898 100.487 100.981 116.078 83.4217C 122.253 76.4677 129.332 69.2339 137.993 63.8154L 156.315 92.1398C 152.583 92.5563 148.487 93.9282 144.196 96.3444L 144.196 96.3444C 126.976 106.041 112.888 128.997 112.888 147.357C 109.393 173.977 100.22 170.59 98.4855 203.512L 98.7112 121.802z"/>
<path style="stroke:none; fill:#ffffff" d="M 169.417 138.23C 169.45 138.752 169.468 139.289 169.468 139.842C 169.468 153.492 159.409 171.393 147.076 179.691C 134.742 187.989 124.683 183.624 124.683 169.974C 124.683 169.42 124.701 168.859 124.734 168.293C 125.504 180.661 135.242 184.359 147.076 176.398C 158.909 168.436 168.647 151.635 169.417 138.23z"/>
<path style="stroke:none; fill:#9e9fa0" d="M 201.022 183.422C 240.91 200.256 280.202 217.032 320.09 233.866C 316.034 240.66 306.33 254.626 298.299 263.7C 272.192 254.002 250.298 245.429 227.466 246.785C 227.182 246.893 226.904 246.996 226.629 247.099L 167.842 224.801C 178.902 215.047 189.963 202.408 201.022 183.422z"/>
<path style="stroke:none; fill:#ffffff" d="M 124.978 156.65C 124.948 156.162 124.931 155.661 124.931 155.144C 124.931 142.401 134.321 125.691 145.835 117.944C 157.349 110.198 166.739 114.273 166.739 127.016C 166.739 127.532 166.722 128.056 166.691 128.585C 165.973 117.038 156.882 113.586 145.835 121.018C 134.788 128.451 125.697 144.135 124.978 156.65z"/>
<path style="stroke:none; fill:#d9dbdc" d="M 158.525 149.191C 159.119 149.508 159.153 150.707 158.716 152.25C 159.479 151.351 160.226 150.883 160.665 151.117C 161.351 151.482 161.028 153.441 159.948 155.475C 158.865 157.51 157.421 158.871 156.734 158.506C 156.378 158.317 156.293 157.699 156.444 156.867C 155.222 158.559 153.928 159.531 153.223 159.156C 152.296 158.662 152.731 156.022 154.191 153.279C 155.651 150.535 157.598 148.699 158.525 149.191z"/>
<path style="stroke:none; fill:#737476" d="M 10.746 78.7941C 28.0173 51.7046 45.5932 27.9893 63.9309 17.2216C 77.3122 9.36438 92.4098 9.70111 106.712 15.8359L 134.011 57.5319C 116.735 68.5461 96.2654 90.373 92.3684 112.754L 10.746 78.7941z"/>
<path style="stroke:none; fill:#9e9fa0" d="M 15.2375 83.2474L 91.9517 115.716L 91.9517 194.808L 15.2375 83.2474z"/>
<path style="stroke:none; fill:#2c2c2b" d="M 141.744 204.481C 143.579 204.043 145.22 204.835 146.293 206.423C 145.389 205.843 144.319 205.637 143.174 205.91C 139.953 206.678 137.327 210.947 137.327 215.414C 137.327 217.335 137.814 218.987 138.624 220.186C 136.988 219.135 135.897 216.862 135.897 213.985C 135.897 209.518 138.524 205.248 141.744 204.481z"/>
<path style="stroke:none; fill:#2c2c2b" d="M 142.967 220.069C 141.55 220.407 140.282 219.795 139.453 218.568C 140.151 219.016 140.978 219.175 141.863 218.964C 144.351 218.371 146.38 215.073 146.38 211.622C 146.38 210.138 146.004 208.862 145.378 207.935C 146.642 208.747 147.484 210.503 147.484 212.726C 147.484 216.177 145.455 219.476 142.967 220.069z"/>
<path style="stroke:none; fill:#2c2c2b" d="M 141.744 76.9866C 143.579 76.5493 145.22 77.3405 146.293 78.9286C 145.389 78.3487 144.319 78.143 143.174 78.4163C 139.953 79.184 137.327 83.4533 137.327 87.9203C 137.327 89.8412 137.814 91.4926 138.624 92.6915C 136.988 91.6414 135.897 89.3677 135.897 86.4907C 135.897 82.0237 138.524 77.7542 141.744 76.9866z"/>
<path style="stroke:none; fill:#2c2c2b" d="M 142.967 92.5747C 141.55 92.9125 140.282 92.3013 139.453 91.0743C 140.151 91.5225 140.978 91.6811 141.863 91.4702C 144.351 90.8771 146.38 87.5786 146.38 84.1277C 146.38 82.6436 146.004 81.3677 145.378 80.4414C 146.642 81.2527 147.484 83.0094 147.484 85.2321C 147.484 88.6831 145.455 91.9816 142.967 92.5747z"/>
<path style="stroke:none; fill:#9e9fa0" d="M 190.194 289.104C 284.522 309.29 378.851 329.476 473.18 349.663C 478.283 350.615 481.777 348.349 483.662 342.864L 493.432 291.969L 495.912 444.77C 491.451 420.236 486.99 395.702 482.53 371.168C 481.061 364.39 479.088 359.623 476.01 359.284L 231.79 305.225L 227.008 308.686L 190.194 299.857L 190.194 289.104z"/>
<path style="stroke:none; fill:#9e9fa0" d="M 190.031 301.917L 225.008 310.386L 221.234 319.342L 468.307 389.346L 450.788 390.819L 219.02 325.062L 214.793 332.628L 177.294 323.576L 190.031 301.917z"/>
<path style="stroke:none; fill:#2c2c2b" d="M 271.693 323.485C 271.984 325.724 270.837 327.579 268.813 328.659C 269.616 327.655 269.994 326.407 269.812 325.009C 269.3 321.079 264.544 317.419 259.226 316.861C 256.939 316.621 254.912 316.995 253.383 317.81C 254.837 315.993 257.681 314.978 261.106 315.337C 266.425 315.895 271.18 319.555 271.693 323.485z"/>
<path style="stroke:none; fill:#2c2c2b" d="M 252.98 322.996C 252.755 321.266 253.641 319.833 255.205 318.999C 254.584 319.774 254.292 320.739 254.433 321.819C 254.829 324.855 258.503 327.683 262.612 328.114C 264.378 328.299 265.945 328.01 267.125 327.381C 266.002 328.784 263.805 329.568 261.159 329.291C 257.05 328.86 253.376 326.032 252.98 322.996z"/>
<path style="stroke:none; fill:#d9dbdc" d="M 463.023 321.303L 491.12 290.015C 488.181 307.58 485.242 325.145 482.303 342.71C 478.188 352.12 467.106 346.376 461.402 345.765C 461.402 338.629 463.023 328.438 463.023 321.303z"/>
<path style="stroke:none; fill:#87888a" d="M 455.391 402.515L 470.711 392.38L 468.447 375.572L 477.725 367.308L 491.219 444.802L 464.493 473.44L 455.391 402.515z"/>
<path style="stroke:none; fill:#b0b4b6" d="M 232.838 308.748L 475.378 363.065L 464.439 372.872L 229.066 317.046L 232.838 308.748z"/>
<path style="stroke:none; fill:#b0b4b6" d="M 171.203 276.837L 189.913 270.801L 202.606 273.723L 236.983 256.764L 305.185 276.837L 305.789 288.002L 280.454 300.789L 252.981 292.837L 252.341 298.297L 187.837 285.526L 177.842 303.392L 168.843 291.534L 171.203 276.837z"/>
<path style="stroke:none; fill:#454545" d="M 339.818 220.987L 324.086 222.637L 324.105 216.207L 325.299 216.205L 325.294 216.651L 339.818 220.987z"/>
</g>
</svg>